<svg width="22" height="23" viewBox="0 0 22 23" fill="none" xmlns="http://www.w3.org/2000/svg">
<path fill-rule="evenodd" clip-rule="evenodd" d="M18.4561 22.4271C18.8463 22.8161 19.4778 22.8161 19.8681 22.4271L21.6573 20.6434C22.0493 20.2527 22.0493 19.6178 21.6573 19.227L14.9162 12.5071C14.5242 12.1163 14.5242 11.4814 14.9162 11.0906L21.6573 4.37075C22.0493 3.97997 22.0493 3.34509 21.6573 2.95431L19.8681 1.17068C19.4778 0.781647 18.8463 0.781648 18.4561 1.17068L11.706 7.8995C11.3157 8.28853 10.6843 8.28853 10.294 7.89949L3.54392 1.17068C3.15365 0.781647 2.52221 0.781647 2.13194 1.17068L0.342678 2.95431C-0.0493352 3.34509 -0.0493351 3.97997 0.342678 4.37075L7.08382 11.0906C7.47584 11.4814 7.47584 12.1163 7.08382 12.5071L0.342678 19.227C-0.0493353 19.6178 -0.0493356 20.2527 0.342678 20.6434L2.13194 22.4271C2.52221 22.8161 3.15365 22.8161 3.54392 22.4271L10.294 15.6982C10.6843 15.3092 11.3157 15.3092 11.706 15.6982L18.4561 22.4271Z" fill="#FF2424"/>
</svg>
