<svg width="33" height="32" viewBox="0 0 33 32" fill="none" xmlns="http://www.w3.org/2000/svg">
<path d="M33 16C33 7.1625 25.6137 0 16.5 0C7.38633 0 0 7.1625 0 16C0 23.9875 6.03281 30.6062 13.9219 31.8062V20.625H9.73242V16H13.9219V12.475C13.9219 8.46563 16.384 6.25 20.1545 6.25C21.9592 6.25 23.8477 6.5625 23.8477 6.5625V10.5H21.7658C19.7162 10.5 19.0781 11.7344 19.0781 13V16H23.6543L22.9228 20.625H19.0781V31.8062C26.9672 30.6062 33 23.9875 33 16Z" fill="#1E3322"/>
<path d="M22.9228 20.625L23.6543 16H19.0781V13C19.0781 11.7344 19.7162 10.5 21.7658 10.5H23.8477V6.5625C23.8477 6.5625 21.9592 6.25 20.1545 6.25C16.384 6.25 13.9219 8.46563 13.9219 12.475V16H9.73242V20.625H13.9219V31.8062C14.763 31.9344 15.6234 32 16.5 32C17.3766 32 18.237 31.9344 19.0781 31.8062V20.625H22.9228Z" fill="white"/>
</svg>
