<svg width="33" height="32" viewBox="0 0 33 32" fill="none" xmlns="http://www.w3.org/2000/svg">
<path fill-rule="evenodd" clip-rule="evenodd" d="M0 16C0 7.16344 7.3873 0 16.5 0C25.6127 0 33 7.16344 33 16C33 24.8366 25.6127 32 16.5 32C7.3873 32 0 24.8366 0 16Z" fill="#1E3322"/>
<path fill-rule="evenodd" clip-rule="evenodd" d="M16.5008 7.46655C14.1109 7.46655 13.8109 7.47669 12.8723 7.51811C11.9354 7.55971 11.2959 7.70353 10.7364 7.91456C10.1576 8.13252 9.66663 8.42407 9.1775 8.89857C8.68799 9.37288 8.38732 9.84898 8.16182 10.41C7.94365 10.9528 7.79515 11.5731 7.75298 12.4812C7.711 13.3914 7.7 13.6824 7.7 16C7.7 18.3175 7.71063 18.6075 7.75316 19.5177C7.79625 20.4262 7.94457 21.0462 8.162 21.5888C8.38695 22.1501 8.68762 22.6262 9.17695 23.1005C9.6659 23.5752 10.1569 23.8674 10.7353 24.0854C11.2952 24.2964 11.9349 24.4402 12.8715 24.4818C13.8102 24.5233 14.1099 24.5334 16.4997 24.5334C18.8899 24.5334 19.1889 24.5233 20.1276 24.4818C21.0644 24.4402 21.7046 24.2964 22.2645 24.0854C22.8431 23.8674 23.3334 23.5752 23.8223 23.1005C24.3118 22.6262 24.6125 22.1501 24.838 21.589C25.0543 21.0462 25.2028 20.426 25.2468 19.5179C25.289 18.6076 25.3 18.3175 25.3 16C25.3 13.6824 25.289 13.3916 25.2468 12.4814C25.2028 11.5729 25.0543 10.9528 24.838 10.4102C24.6125 9.84898 24.3118 9.37288 23.8223 8.89857C23.3328 8.4239 22.8433 8.13234 22.264 7.91456C21.703 7.70353 21.0631 7.55971 20.1263 7.51811C19.1876 7.47669 18.8888 7.46655 16.4981 7.46655H16.5008ZM15.7113 9.00432C15.9456 9.00397 16.2071 9.00432 16.5008 9.00432C18.8504 9.00432 19.1289 9.0125 20.0568 9.05339C20.9148 9.09143 21.3804 9.23046 21.6906 9.34726C22.1013 9.50193 22.3941 9.68682 22.7019 9.98549C23.0099 10.2842 23.2006 10.5686 23.3605 10.9668C23.4809 11.2673 23.6245 11.7188 23.6635 12.5508C23.7057 13.4504 23.7148 13.7206 23.7148 15.998C23.7148 18.2754 23.7057 18.5456 23.6635 19.4451C23.6243 20.2772 23.4809 20.7287 23.3605 21.0292C23.201 21.4274 23.0099 21.7109 22.7019 22.0094C22.3939 22.3081 22.1015 22.493 21.6906 22.6477C21.3808 22.765 20.9148 22.9037 20.0568 22.9417C19.1291 22.9826 18.8504 22.9915 16.5008 22.9915C14.151 22.9915 13.8725 22.9826 12.9448 22.9417C12.0868 22.9033 11.6211 22.7643 11.3107 22.6475C10.9001 22.4928 10.6067 22.3079 10.2987 22.0093C9.99073 21.7106 9.80006 21.4269 9.6402 21.0284C9.51975 20.728 9.37619 20.2764 9.33714 19.4444C9.29498 18.5449 9.28654 18.2746 9.28654 15.9959C9.28654 13.7171 9.29498 13.4483 9.33714 12.5487C9.37638 11.7167 9.51975 11.2651 9.6402 10.9643C9.7997 10.5661 9.99073 10.2817 10.2987 9.983C10.6067 9.68433 10.9001 9.49944 11.3107 9.34441C11.621 9.22708 12.0868 9.08841 12.9448 9.05019C13.7566 9.01463 14.0712 9.00397 15.7113 9.00219V9.00432ZM21.1982 10.4212C20.6152 10.4212 20.1422 10.8794 20.1422 11.4449C20.1422 12.0102 20.6152 12.4689 21.1982 12.4689C21.7812 12.4689 22.2542 12.0102 22.2542 11.4449C22.2542 10.8795 21.7812 10.4212 21.1982 10.4212ZM16.5008 11.6177C14.0051 11.6177 11.9816 13.5798 11.9816 16C11.9816 18.4201 14.0051 20.3813 16.5008 20.3813C18.9966 20.3813 21.0193 18.4201 21.0193 16C21.0193 13.5798 18.9966 11.6177 16.5008 11.6177ZM16.5008 13.1555C18.1208 13.1555 19.4342 14.4289 19.4342 16C19.4342 17.5708 18.1208 18.8444 16.5008 18.8444C14.8807 18.8444 13.5674 17.5708 13.5674 16C13.5674 14.4289 14.8807 13.1555 16.5008 13.1555Z" fill="white"/>
</svg>
