<svg width="33" height="32" viewBox="0 0 33 32" fill="none" xmlns="http://www.w3.org/2000/svg">
<path fill-rule="evenodd" clip-rule="evenodd" d="M0 16C0 7.16344 7.3873 0 16.5 0C25.6127 0 33 7.16344 33 16C33 24.8366 25.6127 32 16.5 32C7.3873 32 0 24.8366 0 16Z" fill="#1E3322"/>
<path d="M11.9067 9.8818C11.8824 8.8136 11.0946 8 9.81547 8C8.53629 8 7.70001 8.8136 7.70001 9.8818C7.70001 10.9279 8.51158 11.7649 9.76693 11.7649H9.79083C11.0946 11.7649 11.9067 10.9279 11.9067 9.8818Z" fill="white"/>
<path d="M11.6604 13.252H7.92113V24.1464H11.6604V13.252Z" fill="white"/>
<path d="M20.8403 12.9961C23.3009 12.9961 25.1456 14.5535 25.1456 17.8998L25.1455 24.1464H21.4063V18.3178C21.4063 16.8538 20.8652 15.8548 19.5116 15.8548C18.4786 15.8548 17.8633 16.5283 17.593 17.1788C17.4941 17.4119 17.4699 17.7367 17.4699 18.0623V24.1467H13.7302C13.7302 24.1467 13.7794 14.2745 13.7302 13.2522H17.4699V14.7953C17.9662 14.0535 18.855 12.9961 20.8403 12.9961Z" fill="white"/>
</svg>
