<svg width="165" height="56" viewBox="0 0 165 56" fill="none" xmlns="http://www.w3.org/2000/svg">
<path fill-rule="evenodd" clip-rule="evenodd" d="M7.29547 0.846154C7.29547 1.31138 6.39282 1.85969 5.28988 2.06462C3.53698 2.38954 3.33735 2.63262 3.70345 3.98769C4.0848 5.39631 3.93359 5.53846 2.0613 5.53846H0V30.7692V56H26.8606C50.2943 56 53.7212 55.8825 53.7212 55.0769C53.7212 54.4615 54.3844 54.1538 55.7109 54.1538C57.4797 54.1538 57.7005 53.9489 57.7005 52.3077C57.7005 50.7489 57.9585 50.4615 59.3586 50.4615C60.9318 50.4615 61.0107 50.296 60.8973 47.2308L60.7779 44L60.5292 46.9231C60.1697 51.1545 57.7005 51.2886 57.7005 47.0769C57.7005 44.7182 57.5042 44.3077 56.3741 44.3077C55.2685 44.3077 55.0476 44.7182 55.0476 46.7692C55.0476 50.0498 53.8651 49.9292 53.5434 46.6154L53.2894 44L53.174 46.6154L53.058 49.2308H30.5083H7.95869V27.6923V6.15385L17.078 6.15569C22.094 6.15631 32.2267 6.33846 39.5958 6.56L52.9936 6.96246L53.2377 9.78892C53.4692 12.4658 53.4884 12.4283 53.6018 9.07692L53.7212 5.53846H30.8399C16.0281 5.53846 7.95869 5.32123 7.95869 4.92308C7.95869 4.20308 23.2752 4.11015 42.6712 4.71262L55.7109 5.11816V8.71262C55.7109 11.6554 57.1534 14.0917 57.7476 12.1538C58.7968 8.73354 58.5514 2.48431 57.3576 2.20615C55.9145 1.87015 37.7222 1.59754 19.0677 1.63262C12.9574 1.64369 7.95869 1.41969 7.95869 1.13415C7.95869 0.848616 19.7369 0.615385 34.1322 0.615385H60.3057L60.5219 6.61539L60.7388 12.6154L60.878 6.30769L61.0167 0H34.1561C11.8074 0 7.29547 0.142154 7.29547 0.846154ZM6.41139 5.33354C6.16799 5.55877 5.96902 5.37415 5.96902 4.92308C5.96902 4.472 6.16799 4.28738 6.41139 4.51262C6.65413 4.73846 6.65413 5.10769 6.41139 5.33354ZM3.64575 7.23077C2.99247 8.70831 1.73168 49.3009 2.25762 51.9028L2.68075 53.9957L13.4442 54.1889C19.3642 54.2948 30.6993 54.4 38.6335 54.4215C46.5676 54.4437 53.0586 54.6695 53.0586 54.9231C53.058 55.1766 41.2691 55.3846 26.8606 55.3846H0.663224V30.7692V6.15385H2.39225C3.77773 6.15385 4.0271 6.36738 3.64575 7.23077ZM29.8531 50.4615C45.8268 50.4615 53.058 50.6658 53.058 51.1169C53.058 51.6646 6.77417 51.4492 6.23166 50.8991C5.86025 50.5225 5.80786 43.9163 6.03335 25.8462L6.28339 5.84615L6.46644 28.1538L6.64883 50.4615H29.8531ZM22.5496 27.3846V36.3077H30.1767C37.3614 36.3077 37.8038 36.2363 37.8038 35.0769C37.8038 33.9372 37.3614 33.8462 31.8348 33.8462H25.8658V31.6769C25.8658 29.232 27.4243 28.3077 31.5463 28.3077C33.3821 28.3077 33.8244 28.0689 33.8244 27.0769C33.8244 25.9828 33.3821 25.8462 29.8451 25.8462H25.8658V23.3846V20.9231H31.5032C36.6982 20.9231 37.1406 20.8265 37.1406 19.6923C37.1406 18.536 36.6982 18.4615 29.8451 18.4615H22.5496V27.3846ZM42.4464 19.6923C42.837 20.3692 43.4445 20.9231 43.796 20.9231C44.1727 20.9231 44.436 24.0843 44.436 28.6154V36.3077H49.9839C60.9881 36.3077 65.6161 25.8215 57.2926 19.7465C54.6484 17.8166 41.3361 17.768 42.4464 19.6923ZM69.307 19.1723C63.3963 22.1717 65.4563 27.6615 72.7551 28.3631C79.3077 28.992 80.9996 31.8837 75.6043 33.2314C72.8486 33.92 70.5883 33.4086 68.7173 31.6726C67.2078 30.2726 64.4289 32.1631 65.7793 33.6726C69.0874 37.3711 79.3415 37.1058 81.5567 33.2646C83.8793 29.2382 81.4572 26.3975 75.1878 25.7951C70.3595 25.3317 68.9415 24.5471 70.0325 22.9428C71.3139 21.0572 74.0497 20.688 76.932 22.0117C79.4543 23.1692 79.5883 23.1729 80.6348 22.0997C83.043 19.6302 73.3433 17.1237 69.307 19.1723ZM87.5456 27.3846V36.3077H89.2037H90.8617V27.3846V18.4615H89.2037H87.5456V27.3846ZM100.799 19.608C91.2928 24.3249 96.2902 36.9458 107.365 36.1895C113.192 35.7914 114.738 34.5108 114.738 30.0831V26.4615H111.067C107.602 26.4615 107.436 26.5305 108.106 27.6923C108.496 28.3692 109.402 28.9231 110.118 28.9231C112.59 28.9231 111.798 31.9169 109.043 32.9846C104.556 34.7243 99.351 31.7169 99.351 27.3846C99.351 22.7108 104.825 19.8948 109.62 22.1022C112.374 23.3705 114.075 22.9022 114.075 20.8757C114.075 18.6917 104.491 17.7766 100.799 19.608ZM119.609 19.5871C120.509 20.5095 120.707 22.1175 120.707 28.5102V36.3077H122.365C124.018 36.3077 124.023 36.2917 124.023 30.3908V24.4738L127.088 27.9292C130.785 32.0942 130.352 32.0597 133.78 28.4665L136.573 25.5385L136.599 30.9231C136.624 36.2498 136.642 36.3077 138.282 36.3077H139.94V28.8086C139.94 21.9569 140.064 21.1871 141.382 19.8855L142.825 18.4615H140.445C138.336 18.4615 137.673 18.8991 134.615 22.3077C130.247 27.1766 130.838 27.1637 126.737 22.4738C123.609 18.8972 122.972 18.4615 120.87 18.4615C118.627 18.4615 118.565 18.5169 119.609 19.5871ZM152.858 19.6474C153.123 20.4215 151.872 23.4092 149.255 28.2535C144.566 36.9335 144.722 36.3077 147.236 36.3077C148.33 36.3077 149.226 36.0437 149.226 35.7212C149.226 33.776 160.179 33.168 160.832 35.0769C161.131 35.952 161.835 36.3077 163.269 36.3077C164.617 36.3077 165.175 36.0529 164.953 35.5385C160.789 25.9052 156.183 18.4615 154.385 18.4615C152.778 18.4615 152.52 18.6615 152.858 19.6474ZM54.3977 21.8523C60.9954 25.0185 57.8372 33.8462 50.1066 33.8462H47.7522V27.3846V20.9231H50.1066C51.4012 20.9231 53.3325 21.3415 54.3977 21.8523ZM157.35 28.3163L159.173 31.3846H155.517H151.86L152.924 29.0769C153.51 27.808 154.143 26.4234 154.331 26C154.907 24.7058 155.453 25.1249 157.35 28.3163ZM55.0476 51.0769C55.0476 51.4154 54.7492 51.6923 54.3844 51.6923C54.0196 51.6923 53.7212 51.4154 53.7212 51.0769C53.7212 50.7385 54.0196 50.4615 54.3844 50.4615C54.7492 50.4615 55.0476 50.7385 55.0476 51.0769Z" fill="white"/>
</svg>
