<svg width="33" height="32" viewBox="0 0 33 32" fill="none" xmlns="http://www.w3.org/2000/svg">
<path fill-rule="evenodd" clip-rule="evenodd" d="M0 16C0 7.16344 7.3873 0 16.5 0C25.6127 0 33 7.16344 33 16C33 24.8366 25.6127 32 16.5 32C7.3873 32 0 24.8366 0 16Z" fill="#1E3322"/>
<path fill-rule="evenodd" clip-rule="evenodd" d="M16.0058 13.0051L16.0405 13.5587L15.4634 13.4909C13.3628 13.2311 11.5278 12.3498 9.96967 10.8696L9.20794 10.1352L9.01173 10.6776C8.59624 11.8865 8.86169 13.1633 9.7273 14.022C10.189 14.4965 10.0851 14.5643 9.28873 14.2819C9.01173 14.1915 8.76936 14.1237 8.74628 14.1576C8.66549 14.2367 8.94248 15.2648 9.16177 15.6716C9.46185 16.2365 10.0735 16.7902 10.7429 17.1178L11.3085 17.3777L10.6391 17.389C9.99275 17.389 9.96967 17.4003 10.0389 17.6376C10.2697 18.372 11.1815 19.1516 12.1972 19.4906L12.9127 19.7278L12.2895 20.0894C11.3662 20.6091 10.2813 20.9029 9.1964 20.9255C8.67703 20.9368 8.25 20.982 8.25 21.0159C8.25 21.1289 9.65805 21.7616 10.4775 22.0102C12.9358 22.7446 15.8558 22.4282 18.0487 21.1741C19.6067 20.2815 21.1648 18.5076 21.8919 16.7902C22.2844 15.875 22.6768 14.2028 22.6768 13.4006C22.6768 12.8808 22.7114 12.813 23.3577 12.1916C23.7386 11.83 24.0964 11.4346 24.1656 11.3216C24.281 11.1069 24.2695 11.1069 23.6809 11.299C22.6998 11.638 22.5613 11.5928 23.0461 11.0843C23.4039 10.7228 23.8309 10.0674 23.8309 9.87536C23.8309 9.84146 23.6578 9.89796 23.4616 9.99964C23.2538 10.1126 22.7922 10.2821 22.4459 10.3838L21.8227 10.5759L21.2572 10.203C20.9456 9.99964 20.507 9.77367 20.2761 9.70588C19.6875 9.5477 18.7873 9.57029 18.2564 9.75107C16.8137 10.2595 15.902 11.5702 16.0058 13.0051Z" fill="white"/>
</svg>
